<?xml version="1.0" standalone="no"?><!DOCTYPE svg PUBLIC "-//W3C//DTD SVG 1.1//EN" "http://www.w3.org/Graphics/SVG/1.1/DTD/svg11.dtd"><svg t="1665660944788" class="icon" viewBox="0 0 1024 1024" version="1.1" xmlns="http://www.w3.org/2000/svg" p-id="221529" xmlns:xlink="http://www.w3.org/1999/xlink" width="128" height="128"><path d="M719.11 683.64c-12.31-9.33-14.93-26.87-5.6-39.18 58.58-77.99 58.58-186.95 0-264.93-9.33-12.31-6.72-29.85 5.6-39.18 12.31-9.33 29.85-6.72 39.18 5.6 73.14 97.76 73.14 234.34 0 332.1-5.6 7.46-13.81 11.19-22.39 11.19-5.97 0-11.57-1.87-16.79-5.6z" fill="#2B8CF7" p-id="221530"></path><path d="M787.4 776.93c-12.31-9.33-14.93-26.87-5.6-39.18 99.63-132.84 99.63-318.67 0-451.51-9.33-12.31-6.72-29.85 5.6-39.18 12.31-9.33 29.85-6.72 39.18 5.6 114.56 152.62 114.56 366.06 0 518.67-5.22 7.46-13.81 11.19-22.39 11.19-5.97 0-11.57-1.86-16.79-5.59z" fill="#2B8CF7" p-id="221531"></path><path d="M651.93 683.28c0 64.18-23.14 112.32-64.55 135.45-16.79 9.33-35.45 13.81-54.85 13.81-29.85 0-61.94-10.08-94.78-30.6l-108.96-68.29c-7.46-4.48-16.05-7.09-24.63-7.09h-34.7V297.45h34.7c8.58 0 17.16-2.61 24.63-7.09l108.96-68.29c54.48-33.96 107.84-39.93 149.63-16.79 41.42 23.14 64.55 71.27 64.55 135.45v342.55z" fill="#A4D4FF" p-id="221532"></path><path d="M269.45 726.56H250.8c-90.3 0-139.93-49.63-139.93-139.93V437.37c0-90.3 49.63-139.93 139.93-139.93h18.66v429.12z" fill="#2B8CF7" p-id="221533"></path></svg>