<?xml version="1.0" standalone="no"?><!DOCTYPE svg PUBLIC "-//W3C//DTD SVG 1.1//EN" "http://www.w3.org/Graphics/SVG/1.1/DTD/svg11.dtd"><svg t="1665660900508" class="icon" viewBox="0 0 1024 1024" version="1.1" xmlns="http://www.w3.org/2000/svg" p-id="221358" xmlns:xlink="http://www.w3.org/1999/xlink" width="128" height="128"><path d="M851.07 510.89l52.28-52.28c10.83-10.83 10.83-28.76 0-39.58-10.83-10.83-28.76-10.83-39.58 0l-52.28 52.28-54.15-54.15c-10.83-10.83-28.76-10.83-39.58 0-10.83 10.83-10.83 28.76 0 39.58l54.15 54.15-55.64 55.64c-10.83 10.83-10.83 28.76 0 39.58 5.6 5.6 12.7 8.22 19.79 8.22 7.1 0 14.19-2.61 19.79-8.22l55.64-55.64 54.15 54.15c5.6 5.6 12.7 8.22 19.79 8.22 7.1 0 14.19-2.61 19.79-8.22 10.83-10.83 10.83-28.38 0-39.58l-54.15-54.15z" fill="#2B8CF7" p-id="221359"></path><path d="M652.04 683.42c0 64.23-23.15 112.41-64.61 135.56-16.8 9.34-35.48 13.82-54.9 13.82-29.88 0-61.99-10.08-94.85-30.62l-109.05-68.34c-7.47-4.48-16.06-7.1-24.65-7.1h-34.73V297.28h34.73c8.59 0 17.18-2.61 24.65-7.1l109.05-68.34c54.52-33.98 107.93-39.96 149.75-16.8 41.45 23.15 64.61 71.33 64.61 135.56v342.82z" fill="#A4D4FF" p-id="221360"></path><path d="M269.26 726.73h-18.67c-90.37 0-140.04-49.67-140.04-140.04V437.31c0-90.37 49.67-140.04 140.04-140.04h18.67v429.46z" fill="#2B8CF7" p-id="221361"></path></svg>