<?xml version="1.0" standalone="no"?><!DOCTYPE svg PUBLIC "-//W3C//DTD SVG 1.1//EN" "http://www.w3.org/Graphics/SVG/1.1/DTD/svg11.dtd"><svg t="1663982791035" class="icon" viewBox="0 0 1024 1024" version="1.1" xmlns="http://www.w3.org/2000/svg" p-id="1638" xmlns:xlink="http://www.w3.org/1999/xlink" width="128" height="128"><path d="M873.50314 686.917378L587.848106 510.331024 873.50314 333.744669a40.54673 40.54673 0 0 0 0-68.98435L535.033317 55.524166c-0.238425-0.1445-0.4913-0.2601-0.729726-0.397376a45.047908 45.047908 0 0 0-2.319226-1.278826l-1.314951-0.6358a40.57563 40.57563 0 0 0-11.856234-3.388528 35.402526 35.402526 0 0 0-4.103803-0.30345c-0.339575-0.007225-0.6647-0.050575-1.004276-0.050575-0.24565 0-0.4913 0.036125-0.73695 0.036125a37.743428 37.743428 0 0 0-2.210852 0.1156 40.987455 40.987455 0 0 0-1.914626 0.166175c-0.614125 0.07225-1.221026 0.180625-1.835152 0.281776a42.468581 42.468581 0 0 0-2.167501 0.4046c-0.512975 0.1156-1.018726 0.2601-1.531701 0.397375a39.491879 39.491879 0 0 0-2.283102 0.657476c-0.4913 0.15895-0.968151 0.354025-1.452226 0.527425-0.729726 0.27455-1.459451 0.541875-2.167502 0.852551-0.541875 0.238425-1.062076 0.50575-1.589501 0.76585-0.62135 0.30345-1.242701 0.599675-1.842376 0.939251-0.62135 0.3468-1.221026 0.729726-1.820702 1.105426-0.47685 0.30345-0.960926 0.59245-1.430551 0.91035-0.657475 0.455175-1.286051 0.946476-1.921851 1.437777-0.39015 0.30345-0.787526 0.599675-1.163226 0.917575a37.403852 37.403852 0 0 0-1.777351 1.618401c-0.382925 0.36125-0.765851 0.715276-1.134326 1.090976-0.512975 0.5202-0.997051 1.076526-1.481126 1.625626-0.411825 0.469625-0.823651 0.932026-1.213801 1.423326-0.397375 0.498525-0.773076 1.011501-1.148776 1.531702-0.4335 0.599675-0.859776 1.206576-1.264376 1.835151-0.13005 0.209525-0.281775 0.39015-0.411825 0.599675-0.1734 0.281775-0.310675 0.578-0.47685 0.867001a43.769082 43.769082 0 0 0-1.892952 3.641403 37.808453 37.808453 0 0 0-2.095251 5.671629 43.906357 43.906357 0 0 0-0.888676 3.778678 39.968729 39.968729 0 0 0-0.368475 2.420376c-0.0578 0.4913-0.1156 0.982601-0.15895 1.481126-0.07225 0.874226-0.1156 1.748451-0.13005 2.629902-0.007225 0.281775-0.04335 0.5491-0.04335 0.830876v345.738178L196.563494 264.767544a40.553955 40.553955 0 1 0-42.649206 68.991575l285.640584 176.57913-285.640584 176.579129a40.553955 40.553955 0 0 0 42.649206 68.991576l276.594878-170.986976v345.730954c0 0.281775 0.036125 0.5491 0.04335 0.830875a40.040979 40.040979 0 0 0 0.99705 8.178706 43.906357 43.906357 0 0 0 1.791802 5.808904 48.494236 48.494236 0 0 0 1.611176 3.583603c0.354025 0.700826 0.736951 1.379976 1.127101 2.051902 0.166175 0.289 0.30345 0.585225 0.47685 0.867 0.10115 0.166175 0.2312 0.310675 0.339575 0.469626 0.780301 1.221026 1.611176 2.405927 2.521527 3.533027l0.339575 0.455176c0.960926 1.170451 2.008551 2.261427 3.092303 3.316277 0.41905 0.411825 0.859776 0.787526 1.293276 1.177676 0.744176 0.6647 1.510026 1.293276 2.304776 1.900176 0.4624 0.354025 0.917576 0.708051 1.387201 1.040401 1.090976 0.765851 2.210852 1.473901 3.374078 2.124152 0.15895 0.0867 0.30345 0.195075 0.469625 0.281775 1.358301 0.736951 2.767177 1.379976 4.212178 1.965201 0.36125 0.1445 0.722501 0.267325 1.083751 0.397375a41.522105 41.522105 0 0 0 4.710703 1.437777c1.112651 0.267325 2.246977 0.47685 3.402978 0.643025 0.440725 0.065025 0.881451 0.151725 1.322176 0.2023 1.401651 0.15895 2.817752 0.252875 4.255528 0.267325 0.1445 0 0.289 0.0289 0.4335 0.0289 0.1734 0 0.3468-0.036125 0.512976-0.036125 1.459451-0.021675 2.904452-0.122825 4.327778-0.296225 0.527425-0.065025 1.054851-0.15895 1.582276-0.238425a39.376279 39.376279 0 0 0 3.583603-0.744176c0.4335-0.1156 0.874226-0.209525 1.307726-0.339575 1.625626-0.469625 3.207902-1.033176 4.739603-1.690651l0.484075-0.2312c1.459451-0.657475 2.868327-1.408876 4.233853-2.225302 0.166175-0.10115 0.3468-0.166175 0.512976-0.267325l338.469823-209.243378a40.54673 40.54673 0 0 0 0-68.984351zM554.266281 162.772144l220.788937 136.4948-220.788937 136.487575V162.772144z m0 695.124984V584.921978l220.788937 136.487575-220.788937 136.487575z" fill="#ffffff" p-id="1639"></path></svg>