<?xml version="1.0" standalone="no"?><!DOCTYPE svg PUBLIC "-//W3C//DTD SVG 1.1//EN" "http://www.w3.org/Graphics/SVG/1.1/DTD/svg11.dtd"><svg t="1664452529861" class="icon" viewBox="0 0 1024 1024" version="1.1" xmlns="http://www.w3.org/2000/svg" p-id="44915" xmlns:xlink="http://www.w3.org/1999/xlink" width="128" height="128"><path d="M512 512m-512 0a512 512 0 1 0 1024 0 512 512 0 1 0-1024 0Z" fill="#56F06E" p-id="44916"></path><path d="M514.515 216.513c-162.111 0-294.001 131.892-294.001 294.002 0 57.708 16.725 111.577 45.564 157.04 12.056-4.395 25.034-7.368 38.595-8.802a258.323 258.323 0 0 1-30.146-56.35v-0.003c-0.001-0.006-0.005-0.009-0.011-0.011h82.652c3.93 21.92 9.25 42.614 15.775 61.804a206.795 206.795 0 0 1 17.114 5.259 204.638 204.638 0 0 1 30.129 13.521c-10.755-23.432-19.425-50.727-25.344-80.584h101.292v161.027c5.675 13.323 9.045 27.137 9.808 40.967 2.849 0.082 5.705 0.134 8.573 0.134 162.113 0 294.004-131.892 294.004-294.003 0-162.109-131.891-294.001-294.004-294.001zM352.038 565.642h-88.684v-0.006a267.111 267.111 0 0 1-4.409-26.543c-0.025-0.225-0.071-0.437-0.095-0.664a246.392 246.392 0 0 1 0-55.827c0.024-0.223 0.07-0.438 0.095-0.663a267.043 267.043 0 0 1 4.409-26.542v-0.007h88.684a524.674 524.674 0 0 0 0 110.252z m-77.523-146.998c0.006-0.003 0.01-0.007 0.011-0.013a258.397 258.397 0 0 1 141.792-145.787c-27.577 35.728-48.476 86.26-59.151 145.8h-82.652z m221.619 147.002h-107.04a474.84 474.84 0 0 1 0-110.252h107.04v110.252z m0-147.008v0.005H394.842c16.75-84.484 55.499-148.499 101.292-162.309v162.304z m258.368-0.011v-0.003c0.008 0.001 0.013 0.003 0.013 0.01h-82.647c-10.678-59.54-31.575-110.075-59.153-145.799a258.364 258.364 0 0 1 141.787 145.792z m-221.615 0.01V256.332c45.804 13.808 84.554 77.825 101.3 162.306h-101.3v-0.001z m0 36.749h107.051a474.831 474.831 0 0 1 0 110.251H532.887V455.386z m0 309.31V602.391h101.3c-16.747 84.482-55.497 148.497-101.3 162.305z m221.615-162.295a258.382 258.382 0 0 1-141.788 145.788c27.578-35.73 48.476-86.263 59.153-145.799h82.647c0.001 0.006-0.004 0.009-0.012 0.011z m15.572-63.227a267.45 267.45 0 0 1-4.398 26.462v0.006h-88.682a527.102 527.102 0 0 0 0-110.251h88.682v0.008a268.59 268.59 0 0 1 4.398 26.46c0.024 0.255 0.085 0.502 0.119 0.756 2.1 18.542 2.1 37.263 0 55.806-0.034 0.253-0.094 0.5-0.119 0.753z" fill="#FFFFFF" p-id="44917"></path><path d="M496.134 764.7c-29.609-8.931-56.271-38.855-75.948-81.726a204.638 204.638 0 0 0-30.129-13.521 207.178 207.178 0 0 0-17.114-5.259c11.198 32.933 25.951 61.423 43.375 83.995a258.363 258.363 0 0 1-111.646-89.436c-13.561 1.434-26.539 4.407-38.595 8.802 50.743 79.99 139.018 133.926 239.864 136.829-0.762-13.83-4.132-27.644-9.808-40.967v1.283z" fill="#FFFFFF" opacity=".4" p-id="44918"></path></svg>