<?xml version="1.0" standalone="no"?><!DOCTYPE svg PUBLIC "-//W3C//DTD SVG 1.1//EN" "http://www.w3.org/Graphics/SVG/1.1/DTD/svg11.dtd"><svg t="1664504274857" class="icon" viewBox="0 0 1024 1024" version="1.1" xmlns="http://www.w3.org/2000/svg" p-id="257160" xmlns:xlink="http://www.w3.org/1999/xlink" width="128" height="128"><path d="M882.6 920.6H141.4c-21 0-38-17-38-38V141.4c0-21 17-38 38-38h741.2c21 0 38 17 38 38v741.2c0 21-17 38-38 38z" fill="#4CAF50" p-id="257161"></path><path d="M280.2 773.1c-13.1 0-23.7-10.6-23.7-23.7V274.6c0-13.1 10.6-23.7 23.7-23.7s23.7 10.6 23.7 23.7v474.7c0.1 13.2-10.6 23.8-23.7 23.8zM508.1 769.2c-13.1 0-23.7-10.6-23.7-23.7V270.7c0-13.1 10.6-23.7 23.7-23.7s23.7 10.6 23.7 23.7v474.7c0 13.2-10.6 23.8-23.7 23.8zM736 769.2c-13.1 0-23.7-10.6-23.7-23.7V270.7c0-13.1 10.6-23.7 23.7-23.7s23.7 10.6 23.7 23.7v474.7c0 13.2-10.6 23.8-23.7 23.8z" fill="#37474F" p-id="257162"></path><path d="M229.9 393.1l26.6 35.6v-55.6zM336.7 313.2L304 337.7v154.5l180.4 241.3V510.7zM794.9 629.4l-35.2 26.3v89.8c0 13.1-10.6 23.7-23.7 23.7s-23.7-10.6-23.7-23.7V661L567.7 467.7l-35.9 26.8v250.9c0 12.2-9.1 22.2-20.9 23.6l113.3 151.6h258.4c21 0 38-17 38-38v-85L794.9 629.4z" fill="#43A047" p-id="257163"></path><path d="M256.5 373.1v55.6l47.5 63.5V337.7z" fill="#263238" p-id="257164"></path><path d="M484.4 745.5c0 13.1 10.6 23.7 23.7 23.7 0.9 0 1.9-0.1 2.8-0.2l-26.5-35.5v12z" fill="#37474F" p-id="257165"></path><path d="M531.8 745.5V494.6l-38.2 28.6-9.3-12.4v222.8l26.5 35.5c11.9-1.5 21-11.5 21-23.6zM736 769.2c13.1 0 23.7-10.6 23.7-23.7v-89.8l-33 24.7-14.5-19.4v84.4c0 13.2 10.6 23.8 23.8 23.8z" fill="#263238" p-id="257166"></path><path d="M508.1 494.1m-66.5 0a66.5 66.5 0 1 0 133 0 66.5 66.5 0 1 0-133 0Z" fill="#E8F5E9" p-id="257167"></path><path d="M736 667.7m-66.5 0a66.5 66.5 0 1 0 133 0 66.5 66.5 0 1 0-133 0Z" fill="#E8F5E9" p-id="257168"></path><path d="M280.2 349.4m-66.5 0a66.5 66.5 0 1 0 133 0 66.5 66.5 0 1 0-133 0Z" fill="#E8F5E9" p-id="257169"></path></svg>