<?xml version="1.0" standalone="no"?><!DOCTYPE svg PUBLIC "-//W3C//DTD SVG 1.1//EN" "http://www.w3.org/Graphics/SVG/1.1/DTD/svg11.dtd"><svg t="1666581669351" class="icon" viewBox="0 0 1024 1024" version="1.1" xmlns="http://www.w3.org/2000/svg" p-id="56775" xmlns:xlink="http://www.w3.org/1999/xlink" width="128" height="128"><path d="M512 512m-448 0a448 448 0 1 0 896 0 448 448 0 1 0-896 0Z" fill="#B2E8FF" p-id="56776"></path><path d="M772.736 263.936h-105.216v-16.384c0-4.224-3.456-7.68-7.68-7.68H503.296c-0.64 0-1.28 0.128-1.92 0.256L373.76 272.512c-3.456 0.896-5.76 3.968-5.76 7.424v67.072h-16.384c-55.808 0-101.376 45.44-101.376 101.376 0 55.808 45.44 101.376 101.376 101.376h300.16c44.16 0 80.128 35.968 80.128 80.128s-35.968 80.128-80.128 80.128h-109.952v-76.8c0-4.224-3.456-7.68-7.68-7.68H406.016c-4.224 0-7.68 3.456-7.68 7.68v20.48h-44.032c-4.224 0-7.68 3.456-7.68 7.68v112.768c0 4.224 3.456 7.68 7.68 7.68h44.032v20.48c0 4.224 3.456 7.68 7.68 7.68h128.128c4.224 0 7.68-3.456 7.68-7.68v-76.8h109.952c52.608 0 95.488-42.88 95.488-95.488s-42.88-95.488-95.488-95.488H351.616c-47.36 0-86.016-38.528-86.016-86.016 0-47.36 38.528-86.016 86.016-86.016h16.384v67.072c0 3.456 2.432 6.528 5.76 7.424l127.616 32.512c0.64 0.128 1.28 0.256 1.92 0.256h156.544c4.224 0 7.68-3.456 7.68-7.68v-16.64h105.216c4.224 0 7.68-3.456 7.68-7.68V271.616c0-4.352-3.328-7.68-7.68-7.68z" fill="#1A6C91" opacity=".5" p-id="56777"></path><path d="M638.976 712.448h-117.632c-4.224 0-7.68-3.456-7.68-7.68s3.456-7.68 7.68-7.68h117.632c44.16 0 80.128-35.968 80.128-80.128s-35.968-80.128-80.128-80.128H338.816c-55.808 0-101.376-45.44-101.376-101.376 0-55.808 45.44-101.376 101.376-101.376h38.016c4.224 0 7.68 3.456 7.68 7.68s-3.456 7.68-7.68 7.68h-38.016c-47.36 0-86.016 38.528-86.016 86.016 0 47.36 38.528 86.016 86.016 86.016h300.16c52.608 0 95.488 42.88 95.488 95.488s-42.88 95.488-95.488 95.488z" fill="#1A6C91" p-id="56778"></path><path d="M387.84 761.088h-46.208v-112.64H387.84" fill="#FFFFFF" p-id="56779"></path><path d="M387.84 768.768h-46.336c-4.224 0-7.68-3.456-7.68-7.68v-112.768c0-4.224 3.456-7.68 7.68-7.68H387.84c4.224 0 7.68 3.456 7.68 7.68s-3.456 7.68-7.68 7.68h-38.656v97.408H387.84c4.224 0 7.68 3.456 7.68 7.68s-3.456 7.68-7.68 7.68z" fill="#1A6C91" p-id="56780"></path><path d="M393.216 620.288h128.128v169.088H393.216z" fill="#FFFFFF" p-id="56781"></path><path d="M521.344 797.056H393.216c-4.224 0-7.68-3.456-7.68-7.68V620.288c0-4.224 3.456-7.68 7.68-7.68h128.128c4.224 0 7.68 3.456 7.68 7.68v169.088c0 4.224-3.456 7.68-7.68 7.68z m-120.448-15.36h112.768V627.968h-112.768v153.728z" fill="#1A6C91" p-id="56782"></path><path d="M647.04 449.024H490.496l-127.616-32.512V267.136l127.616-32.512h156.544z" fill="#FFFFFF" p-id="56783"></path><path d="M647.04 456.704H490.496c-0.64 0-1.28-0.128-1.92-0.256L360.96 424.064c-3.456-0.896-5.76-3.968-5.76-7.424V267.136c0-3.456 2.432-6.528 5.76-7.424l127.616-32.512c0.64-0.128 1.28-0.256 1.92-0.256h156.544c4.224 0 7.68 3.456 7.68 7.68v214.4c0 4.224-3.456 7.68-7.68 7.68z m-155.648-15.36h147.968V242.304H491.392l-120.832 30.72v137.472l120.832 30.848z" fill="#1A6C91" p-id="56784"></path><path d="M648.064 258.816h112v166.272h-112z" fill="#FFFFFF" p-id="56785"></path><path d="M759.936 432.64h-112c-4.224 0-7.68-3.456-7.68-7.68V258.816c0-4.224 3.456-7.68 7.68-7.68h112c4.224 0 7.68 3.456 7.68 7.68V424.96c0 4.224-3.328 7.68-7.68 7.68z m-104.192-15.36h96.64V266.496h-96.64V417.28z" fill="#1A6C91" p-id="56786"></path><path d="M687.104 293.76h33.28v33.28h-33.28z" fill="#FFFFFF" p-id="56787"></path><path d="M720.384 334.72h-33.28c-4.224 0-7.68-3.456-7.68-7.68v-33.28c0-4.224 3.456-7.68 7.68-7.68h33.28c4.224 0 7.68 3.456 7.68 7.68v33.28c0 4.224-3.456 7.68-7.68 7.68z m-25.6-15.36h17.92v-17.92h-17.92v17.92z" fill="#1A6C91" p-id="56788"></path><path d="M687.104 352.64h33.28v33.28h-33.28z" fill="#FFFFFF" p-id="56789"></path><path d="M720.384 393.6h-33.28c-4.224 0-7.68-3.456-7.68-7.68v-33.28c0-4.224 3.456-7.68 7.68-7.68h33.28c4.224 0 7.68 3.456 7.68 7.68v33.28c0 4.224-3.456 7.68-7.68 7.68z m-25.6-15.36h17.92v-17.92h-17.92v17.92z" fill="#1A6C91" p-id="56790"></path></svg>