<?xml version="1.0" standalone="no"?><!DOCTYPE svg PUBLIC "-//W3C//DTD SVG 1.1//EN" "http://www.w3.org/Graphics/SVG/1.1/DTD/svg11.dtd"><svg t="1661994582535" class="icon" viewBox="0 0 1024 1024" version="1.1" xmlns="http://www.w3.org/2000/svg" p-id="2965" xmlns:xlink="http://www.w3.org/1999/xlink" width="128" height="128"><path d="M521.309091 698.181818c18.618182 0 34.909091 16.290909 34.909091 34.909091v23.272727c0 18.618182-16.290909 34.909091-34.909091 34.909091s-34.909091-16.290909-34.909091-34.909091v-23.272727c0-18.618182 13.963636-34.909091 34.909091-34.909091z m-139.636364-290.909091c-18.618182 0-32.581818-13.963636-32.581818-32.581818v-4.654545c0-4.654545 2.327273-9.309091 2.327273-13.963637 13.963636-86.109091 86.109091-146.618182 172.218182-146.618182h6.981818c76.8 0 144.290909 53.527273 162.909091 130.327273v4.654546c16.290909 74.472727-11.636364 148.945455-72.145455 195.490909l-62.836363 46.545454c-2.327273 2.327273-4.654545 4.654545-4.654546 9.309091v23.272727c0 18.618182-16.290909 34.909091-34.909091 34.909091s-34.909091-16.290909-34.909091-34.909091v-23.272727c0-25.6 11.636364-51.2 32.581818-65.163636l62.836364-46.545455c37.236364-27.927273 55.854545-76.8 44.218182-123.345454v-4.654546c-9.309091-44.218182-48.872727-76.8-95.418182-76.8h-6.981818c-51.2 0-95.418182 37.236364-102.4 88.436364v6.981818c-2.327273 18.618182-18.618182 32.581818-37.236364 32.581818zM512 1024C228.072727 1024 0 795.927273 0 512S228.072727 0 512 0s512 228.072727 512 512-228.072727 512-512 512z m0-46.545455c256 0 465.454545-209.454545 465.454545-465.454545S768 46.545455 512 46.545455 46.545455 256 46.545455 512s209.454545 465.454545 465.454545 465.454545z" fill="#13227a" p-id="2966"></path></svg>