<?xml version="1.0" standalone="no"?><!DOCTYPE svg PUBLIC "-//W3C//DTD SVG 1.1//EN" "http://www.w3.org/Graphics/SVG/1.1/DTD/svg11.dtd"><svg t="1664424060030" class="icon" viewBox="0 0 1024 1024" version="1.1" xmlns="http://www.w3.org/2000/svg" p-id="32296" xmlns:xlink="http://www.w3.org/1999/xlink" width="128" height="128"><path d="M851.217006 281.169176l67.117804-67.117803-45.349868-44.44287-67.117803 67.117803c-79.815766-67.117803-182.306466-108.839681-293.867139-108.839681C265.296723 127.886625 63.943313 329.240035 63.943313 575.943313s201.35341 448.056687 448.056687 448.056687 448.056687-201.35341 448.056687-448.056687c0-111.560673-41.721878-214.051373-108.839681-294.774137z m-339.217006 678.434013c-211.330381 0-383.659876-172.329495-383.659876-383.659876s172.329495-383.659876 383.659876-383.659876 383.659876 172.329495 383.659876 383.659876-172.329495 383.659876-383.659876 383.659876zM384.113375 0h255.96372v63.988663H384.113375z" fill="#2c2c2c" p-id="32297"></path><path d="M543.744907 486.150576V320.170062h-63.489814v165.980514c-39.000886 12.697963-64.396811 48.070859-64.396811 89.792737 0 54.419841 41.721878 96.141718 96.141718 96.141718s96.141718-41.721878 96.141718-96.141718c0-41.721878-26.302923-77.094774-64.396811-89.792737z m-31.744907 121.537644c-19.046944 0-31.744907-12.697963-31.744907-31.744907s12.697963-31.744907 31.744907-31.744907 31.744907 12.697963 31.744907 31.744907-12.697963 31.744907-31.744907 31.744907z" fill="#2c2c2c" p-id="32298"></path></svg>