<?xml version="1.0" standalone="no"?><!DOCTYPE svg PUBLIC "-//W3C//DTD SVG 1.1//EN" "http://www.w3.org/Graphics/SVG/1.1/DTD/svg11.dtd"><svg t="1661430528030" class="icon" viewBox="0 0 1024 1024" version="1.1" xmlns="http://www.w3.org/2000/svg" p-id="8480" xmlns:xlink="http://www.w3.org/1999/xlink" width="128" height="128"><defs><style type="text/css">@font-face { font-family: feedback-iconfont; src: url("//at.alicdn.com/t/font_1031158_u69w8yhxdu.woff2?t=1630033759944") format("woff2"), url("//at.alicdn.com/t/font_1031158_u69w8yhxdu.woff?t=1630033759944") format("woff"), url("//at.alicdn.com/t/font_1031158_u69w8yhxdu.ttf?t=1630033759944") format("truetype"); }
</style></defs><path d="M952.33152 216.32H488.97152l-24.96-79.36a72.32 72.32 0 0 0-68.48-51.84H71.69152A72.96 72.96 0 0 0 0.01152 159.36v704a72.96 72.96 0 0 0 71.68 74.24h468.48a37.12 37.12 0 0 0 0-74.24H71.69152v-576h880.64v154.88a35.84 35.84 0 1 0 71.68 0V290.56a72.96 72.96 0 0 0-71.68-74.24z m-880.64 0v-56.96h323.84l17.92 56.96z" fill="#2c2c2c" p-id="8481"></path><path d="M855.05152 925.44a32.64 32.64 0 0 1-30.72-22.4 26.88 26.88 0 0 0-48.64 0 32 32 0 0 1-39.68 21.12 219.52 219.52 0 0 1-96-59.52 31.36 31.36 0 0 1 0-42.88 24.96 24.96 0 0 0 5.76-16 25.6 25.6 0 0 0-25.6-26.24 38.4 38.4 0 0 1-37.12-24.96 213.12 213.12 0 0 1-4.48-44.8A220.8 220.8 0 0 1 586.25152 640a33.28 33.28 0 0 1 30.72-22.4 25.6 25.6 0 0 0 26.24-25.6 21.12 21.12 0 0 0 0-10.88 32 32 0 0 1 7.04-37.76 227.84 227.84 0 0 1 92.16-51.84 31.36 31.36 0 0 1 37.12 16.64 26.88 26.88 0 0 0 46.08 0 32.64 32.64 0 0 1 37.12-16.64 227.84 227.84 0 0 1 92.16 51.84 32 32 0 0 1 7.04 37.76 21.12 21.12 0 0 0 0 10.88 24.96 24.96 0 0 0 25.6 25.6 33.92 33.92 0 0 1 31.36 22.4 220.8 220.8 0 0 1 5.12 69.76 213.12 213.12 0 0 1-4.48 44.8 32.64 32.64 0 0 1-33.92 25.6 25.6 25.6 0 0 0-23.04 41.6 31.36 31.36 0 0 1 0 42.88 219.52 219.52 0 0 1-97.28 59.52z m-55.04-103.68a89.6 89.6 0 0 1 69.12 32 166.4 166.4 0 0 0 28.8-17.92 96 96 0 0 1-5.12-30.08A89.6 89.6 0 0 1 960.01152 718.72v-8.96a148.48 148.48 0 0 0 0-29.44 90.24 90.24 0 0 1-64-86.4 104.96 104.96 0 0 1 0-14.08 192 192 0 0 0-31.36-17.92 92.8 92.8 0 0 1-128 0 192 192 0 0 0-31.36 17.92 104.96 104.96 0 0 1 0 14.08 90.24 90.24 0 0 1-64 86.4 148.48 148.48 0 0 0 0 29.44v8.96a90.88 90.88 0 0 1 67.2 87.04 96 96 0 0 1-5.12 30.08 166.4 166.4 0 0 0 28.8 17.92 89.6 89.6 0 0 1 67.84-32z" fill="#2c2c2c" p-id="8482"></path><path d="M800.01152 808.32a99.2 99.2 0 1 1 0-198.4 99.2 99.2 0 1 1 0 198.4z m0-134.4a35.84 35.84 0 0 0-35.2 35.84 35.2 35.2 0 0 0 70.4 0 35.84 35.84 0 0 0-35.2-35.84z" fill="#2c2c2c" p-id="8483"></path></svg>