<?xml version="1.0" standalone="no"?><!DOCTYPE svg PUBLIC "-//W3C//DTD SVG 1.1//EN" "http://www.w3.org/Graphics/SVG/1.1/DTD/svg11.dtd"><svg t="1664424015558" class="icon" viewBox="0 0 1024 1024" version="1.1" xmlns="http://www.w3.org/2000/svg" p-id="28830" xmlns:xlink="http://www.w3.org/1999/xlink" width="128" height="128"><path d="M512 0a512 512 0 1 0 512 512 512.64 512.64 0 0 0-512-512z m0 960a448 448 0 1 1 448-448 448.512 448.512 0 0 1-448 448z" fill="#575869" p-id="28831"></path><path d="M829.696 563.84L544 487.36V255.36a32 32 0 0 0-64 0v214.784l-16.96-4.48a32 32 0 0 0-16.512 61.76l33.472 8.96v36.864a32 32 0 0 0 64 0v-19.712l269.12 72.128a32 32 0 0 0 16.576-61.76z" fill="#575869" p-id="28832"></path></svg>