<?xml version="1.0" standalone="no"?><!DOCTYPE svg PUBLIC "-//W3C//DTD SVG 1.1//EN" "http://www.w3.org/Graphics/SVG/1.1/DTD/svg11.dtd"><svg t="1663205768812" class="icon" viewBox="0 0 1024 1024" version="1.1" xmlns="http://www.w3.org/2000/svg" p-id="16036" xmlns:xlink="http://www.w3.org/1999/xlink" width="128" height="128"><path d="M134.4 695.467c-29.867-4.267-51.2-29.867-51.2-59.734 0-34.133 27.733-61.866 61.867-61.866s61.866 27.733 61.866 61.866c0 14.934-4.266 27.734-14.933 38.4 72.533 160 256 247.467 430.933 194.134h4.267c6.4-2.134 10.667-4.267 17.067-6.4 14.933-6.4 29.866-12.8 38.4-17.067 14.933-8.533 34.133-2.133 42.666 12.8s2.134 34.133-12.8 42.667C684.8 915.2 659.2 928 640 930.133c-204.8 57.6-422.4-42.666-505.6-234.666z m691.2 0c87.467-145.067 64-334.934-66.133-452.267-12.8-10.667-12.8-29.867-2.134-42.667C768 187.733 787.2 187.733 800 198.4c153.6 138.667 181.333 364.8 74.667 533.333 4.266 8.534 6.4 17.067 6.4 25.6 0 34.134-27.734 61.867-61.867 61.867s-61.867-27.733-61.867-61.867 27.734-61.866 61.867-61.866h6.4zM576 160c-21.333-4.267-42.667-6.4-64-6.4-174.933 0-326.4 125.867-352 290.133-2.133 10.667-2.133 21.334-4.267 32 0 17.067-14.933 29.867-32 27.734s-29.866-14.934-27.733-32c0-12.8 2.133-25.6 4.267-36.267 32-194.133 209.066-341.333 413.866-341.333 27.734 0 53.334 2.133 78.934 8.533 10.666-10.667 25.6-17.067 42.666-17.067 34.134 0 61.867 27.734 61.867 61.867s-27.733 61.867-61.867 61.867C605.867 204.8 582.4 185.6 576 160z m51.2 706.133z m-381.867-281.6V448c0-27.733 12.8-40.533 40.534-38.4H358.4c46.933 2.133 70.4 21.333 72.533 57.6 0 27.733-14.933 42.667-42.666 49.067 23.466 2.133 36.266 12.8 38.4 32l2.133 17.066v8.534c2.133 10.666 2.133 17.066 2.133 21.333-2.133 14.933-10.666 23.467-29.866 23.467-21.334 0-34.134-8.534-36.267-27.734l-2.133-27.733c-2.134-14.933-10.667-21.333-27.734-21.333h-25.6v42.666c0 21.334-10.666 32-32 34.134-21.333-2.134-32-12.8-32-34.134z m64-85.333h32c19.2 0 27.734-6.4 27.734-19.2 0-12.8-8.534-21.333-27.734-19.2h-32v38.4z m185.6-38.4H454.4c-17.067 0-25.6-8.533-27.733-27.733 0-17.067 10.666-25.6 29.866-25.6h140.8c19.2 0 29.867 8.533 29.867 25.6 0 17.066-8.533 25.6-27.733 27.733h-40.534v121.6c0 21.333-10.666 34.133-32 34.133s-32-12.8-32-34.133V460.8zM618.667 512c2.133-66.133 38.4-102.4 106.666-108.8 51.2 4.267 78.934 23.467 85.334 57.6-2.134 17.067-12.8 27.733-32 27.733-6.4 0-10.667 0-12.8-4.266-2.134-2.134-6.4-6.4-10.667-14.934-6.4-12.8-17.067-19.2-32-17.066-23.467 2.133-36.267 21.333-36.267 55.466 0 36.267 14.934 55.467 40.534 55.467 10.666 2.133 21.333-6.4 32-21.333 6.4-8.534 14.933-12.8 23.466-12.8 19.2 2.133 29.867 10.666 29.867 27.733-4.267 34.133-32 53.333-85.333 57.6-70.4 0-106.667-34.133-108.8-102.4z" fill="#515151" p-id="16037"></path></svg>