<?xml version="1.0" standalone="no"?><!DOCTYPE svg PUBLIC "-//W3C//DTD SVG 1.1//EN" "http://www.w3.org/Graphics/SVG/1.1/DTD/svg11.dtd"><svg t="1661226731518" class="icon" viewBox="0 0 1024 1024" version="1.1" xmlns="http://www.w3.org/2000/svg" p-id="2514" xmlns:xlink="http://www.w3.org/1999/xlink" width="128" height="128"><defs><style type="text/css">@font-face { font-family: feedback-iconfont; src: url("//at.alicdn.com/t/font_1031158_u69w8yhxdu.woff2?t=1630033759944") format("woff2"), url("//at.alicdn.com/t/font_1031158_u69w8yhxdu.woff?t=1630033759944") format("woff"), url("//at.alicdn.com/t/font_1031158_u69w8yhxdu.ttf?t=1630033759944") format("truetype"); }
</style></defs><path d="M749.407038 382.450459l-474.814076 0c-9.592472 0-17.396205 7.803733-17.396205 17.396205l0 474.734258c0 9.592472 7.803733 17.396205 17.396205 17.396205l474.814076 0c9.592472 0 17.396205-7.803733 17.396205-17.396205L766.803243 399.846664C766.803243 390.254192 758.99951 382.450459 749.407038 382.450459zM703.357236 800.110837c0 17.213034-13.954827 31.16786-31.16786 31.16786s-31.16786-13.953803-31.16786-31.16786L641.021515 478.509235c0-17.213034 13.953803-31.16786 31.16786-31.16786s31.168883 13.953803 31.16786 31.16786L703.357236 800.110837zM749.407038 316.958862l-46.048779 0L703.358259 62.775742l-382.716518 0 0 254.18312-46.048779 0c-45.777603 0-82.887802 37.110199-82.887802 82.887802l0 474.734258c0 45.777603 37.110199 82.887802 82.887802 82.887802l474.814076 0c45.777603 0 82.887802-37.110199 82.887802-82.887802L832.29484 399.846664C832.29484 354.068038 795.184641 316.958862 749.407038 316.958862zM386.133338 128.267339l251.733325 0 0 187.983395-251.733325 0L386.133338 128.267339zM766.803243 874.580922c0 9.592472-7.803733 17.396205-17.396205 17.396205l-474.814076 0c-9.592472 0-17.396205-7.803733-17.396205-17.396205L257.196757 399.846664c0-9.592472 7.803733-17.396205 17.396205-17.396205l474.814076 0c9.592472 0 17.396205 7.803733 17.396205 17.396205L766.803243 874.580922zM449.161836 189.772134l127.395482 0 0 64.465221-127.395482 0 0-64.465221Z" fill="#515151" p-id="2515"></path></svg>