<?xml version="1.0" standalone="no"?><!DOCTYPE svg PUBLIC "-//W3C//DTD SVG 1.1//EN" "http://www.w3.org/Graphics/SVG/1.1/DTD/svg11.dtd"><svg t="1664501674845" class="icon" viewBox="0 0 1024 1024" version="1.1" xmlns="http://www.w3.org/2000/svg" p-id="205567" xmlns:xlink="http://www.w3.org/1999/xlink" width="128" height="128"><path d="M512 0A512 512 0 1 1 0 512 512 512 0 0 1 512 0z m0 780.8a64 64 0 1 0-64-64 64 64 0 0 0 64 64zM365.952 587.392l41.216 30.336a128 128 0 0 1 209.664 0l41.216-30.336a179.2 179.2 0 0 0-292.096 0z m-113.28-83.712L294.4 534.144a268.8 268.8 0 0 1 436.224 0l41.216-30.464a320 320 0 0 0-518.656 0z m-102.4-75.904l43.264 31.872a403.328 403.328 0 0 1 646.528-6.144l34.944-25.6a448 448 0 0 0-724.736 0z" fill="#3399FF" p-id="205568"></path></svg>