<?xml version="1.0" standalone="no"?><!DOCTYPE svg PUBLIC "-//W3C//DTD SVG 1.1//EN" "http://www.w3.org/Graphics/SVG/1.1/DTD/svg11.dtd"><svg t="1662085672226" class="icon" viewBox="0 0 1024 1024" version="1.1" xmlns="http://www.w3.org/2000/svg" p-id="20531" xmlns:xlink="http://www.w3.org/1999/xlink" width="128" height="128"><path d="M471.04 716.8m-102.4 0a102.4 102.4 0 1 0 204.8 0 102.4 102.4 0 1 0-204.8 0Z" fill="" p-id="20532"></path><path d="M781.653333 436.906667c3.413333 3.413333 6.826667 3.413333 13.653334 3.413333s10.24 0 13.653333-3.413333c6.826667-6.826667 6.826667-17.066667 0-23.893334-187.733333-187.733333-488.106667-187.733333-675.84 0-6.826667 6.826667-6.826667 17.066667 0 23.893334s17.066667 6.826667 23.893333 0C238.933333 351.573333 351.573333 307.2 467.626667 307.2s232.106667 44.373333 314.026666 129.706667z" fill="" p-id="20533"></path><path d="M904.533333 317.44c3.413333 3.413333 6.826667 3.413333 13.653334 3.413333s10.24 0 13.653333-3.413333c6.826667-6.826667 6.826667-17.066667 0-23.893333C679.253333 40.96 266.24 40.96 13.653333 293.546667c-6.826667 6.826667-6.826667 17.066667 0 23.893333s17.066667 6.826667 23.893334 0c235.52-242.346667 628.053333-242.346667 866.986666 0zM1013.76 890.88L887.466667 778.24c20.48-27.306667 30.72-61.44 30.72-98.986667 0-95.573333-75.093333-170.666667-170.666667-170.666666s-170.666667 75.093333-170.666667 170.666666 75.093333 170.666667 170.666667 170.666667c44.373333 0 85.333333-17.066667 116.053333-47.786667l126.293334 112.64c3.413333 3.413333 6.826667 3.413333 10.24 3.413334 3.413333 0 10.24-3.413333 13.653333-6.826667 6.826667-3.413333 6.826667-13.653333 0-20.48zM744.106667 819.2c-75.093333 0-136.533333-61.44-136.533334-136.533333s61.44-136.533333 136.533334-136.533334 136.533333 61.44 136.533333 136.533334-61.44 136.533333-136.533333 136.533333zM604.16 518.826667c6.826667 6.826667 17.066667 3.413333 23.893333-3.413334 6.826667-6.826667 3.413333-17.066667-3.413333-23.893333-109.226667-71.68-252.586667-58.026667-344.746667 34.133333-6.826667 6.826667-6.826667 17.066667 0 23.893334 3.413333 3.413333 6.826667 3.413333 13.653334 3.413333s10.24 0 13.653333-3.413333c75.093333-81.92 201.386667-95.573333 296.96-30.72z" fill="" p-id="20534"></path></svg>