<?xml version="1.0" standalone="no"?><!DOCTYPE svg PUBLIC "-//W3C//DTD SVG 1.1//EN" "http://www.w3.org/Graphics/SVG/1.1/DTD/svg11.dtd"><svg t="1664284442736" class="icon" viewBox="0 0 1024 1024" version="1.1" xmlns="http://www.w3.org/2000/svg" p-id="5936" xmlns:xlink="http://www.w3.org/1999/xlink" width="128" height="128"><path d="M320 256l64 0 0 512L320 768 320 256 320 256z" p-id="5937"></path><path d="M787.2 409.6C787.2 236.8 608 256 608 256L448 256l0 512 64 0 0-192 134.4 0C800 569.6 787.2 409.6 787.2 409.6zM691.2 467.2c-12.8 12.8-32 19.2-57.6 19.2L512 486.4 512 339.2l121.6 0c32 0 38.4 6.4 57.6 19.2 12.8 12.8 19.2 32 19.2 57.6C710.4 435.2 704 454.4 691.2 467.2L691.2 467.2z" p-id="5938"></path><path d="M512 38.4C249.6 38.4 38.4 249.6 38.4 512s217.6 473.6 473.6 473.6 473.6-217.6 473.6-473.6S774.4 38.4 512 38.4L512 38.4zM512 928c-230.4 0-416-192-416-416 0-230.4 192-416 416-416 230.4 0 416 192 416 416C928 742.4 742.4 928 512 928L512 928z" p-id="5939"></path></svg>